<mxfile host="app.diagrams.net" agent="Mozilla/5.0 (X11; Ubuntu; Linux x86_64; rv:131.0) Gecko/20100101 Firefox/131.0" version="24.8.0">
  <diagram name="Page-1" id="3vq0jWuTR10y4nKij2nB">
    <mxGraphModel dx="1364" dy="758" grid="1" gridSize="10" guides="1" tooltips="1" connect="1" arrows="1" fold="1" page="1" pageScale="1" pageWidth="850" pageHeight="1100" math="0" shadow="0">
      <root>
        <mxCell id="0" />
        <mxCell id="1" parent="0" />
        <mxCell id="dRwRVW6C_3hpwQ-hqYbz-10" value="" style="edgeStyle=orthogonalEdgeStyle;rounded=0;orthogonalLoop=1;jettySize=auto;html=1;" edge="1" parent="1" source="dRwRVW6C_3hpwQ-hqYbz-1" target="dRwRVW6C_3hpwQ-hqYbz-2">
          <mxGeometry relative="1" as="geometry" />
        </mxCell>
        <mxCell id="dRwRVW6C_3hpwQ-hqYbz-1" value="Application Layer" style="rounded=0;whiteSpace=wrap;html=1;fillColor=#f5f5f5;strokeColor=#666666;fontColor=#333333;" vertex="1" parent="1">
          <mxGeometry x="360" y="200" width="120" height="40" as="geometry" />
        </mxCell>
        <mxCell id="dRwRVW6C_3hpwQ-hqYbz-9" value="" style="edgeStyle=orthogonalEdgeStyle;rounded=0;orthogonalLoop=1;jettySize=auto;html=1;" edge="1" parent="1" source="dRwRVW6C_3hpwQ-hqYbz-2" target="dRwRVW6C_3hpwQ-hqYbz-1">
          <mxGeometry relative="1" as="geometry" />
        </mxCell>
        <mxCell id="dRwRVW6C_3hpwQ-hqYbz-11" value="" style="edgeStyle=orthogonalEdgeStyle;rounded=0;orthogonalLoop=1;jettySize=auto;html=1;" edge="1" parent="1" source="dRwRVW6C_3hpwQ-hqYbz-2" target="dRwRVW6C_3hpwQ-hqYbz-3">
          <mxGeometry relative="1" as="geometry" />
        </mxCell>
        <mxCell id="dRwRVW6C_3hpwQ-hqYbz-2" value="&lt;div&gt;Presentation Layer&lt;/div&gt;" style="rounded=0;whiteSpace=wrap;html=1;fillColor=#dae8fc;strokeColor=#6c8ebf;" vertex="1" parent="1">
          <mxGeometry x="360" y="280" width="120" height="40" as="geometry" />
        </mxCell>
        <mxCell id="dRwRVW6C_3hpwQ-hqYbz-12" value="" style="edgeStyle=orthogonalEdgeStyle;rounded=0;orthogonalLoop=1;jettySize=auto;html=1;" edge="1" parent="1" source="dRwRVW6C_3hpwQ-hqYbz-3" target="dRwRVW6C_3hpwQ-hqYbz-4">
          <mxGeometry relative="1" as="geometry" />
        </mxCell>
        <mxCell id="dRwRVW6C_3hpwQ-hqYbz-3" value="&lt;div&gt;Session Layer&lt;/div&gt;" style="rounded=0;whiteSpace=wrap;html=1;fillColor=#d5e8d4;strokeColor=#82b366;" vertex="1" parent="1">
          <mxGeometry x="360" y="360" width="120" height="40" as="geometry" />
        </mxCell>
        <mxCell id="dRwRVW6C_3hpwQ-hqYbz-13" value="" style="edgeStyle=orthogonalEdgeStyle;rounded=0;orthogonalLoop=1;jettySize=auto;html=1;" edge="1" parent="1" source="dRwRVW6C_3hpwQ-hqYbz-4" target="dRwRVW6C_3hpwQ-hqYbz-5">
          <mxGeometry relative="1" as="geometry" />
        </mxCell>
        <mxCell id="dRwRVW6C_3hpwQ-hqYbz-4" value="&lt;div&gt;Transport Layer&lt;/div&gt;" style="rounded=0;whiteSpace=wrap;html=1;fillColor=#ffe6cc;strokeColor=#d79b00;" vertex="1" parent="1">
          <mxGeometry x="360" y="440" width="120" height="40" as="geometry" />
        </mxCell>
        <mxCell id="dRwRVW6C_3hpwQ-hqYbz-14" value="" style="edgeStyle=orthogonalEdgeStyle;rounded=0;orthogonalLoop=1;jettySize=auto;html=1;" edge="1" parent="1" source="dRwRVW6C_3hpwQ-hqYbz-5" target="dRwRVW6C_3hpwQ-hqYbz-6">
          <mxGeometry relative="1" as="geometry" />
        </mxCell>
        <mxCell id="dRwRVW6C_3hpwQ-hqYbz-5" value="&lt;div&gt;Network Layer&lt;/div&gt;" style="rounded=0;whiteSpace=wrap;html=1;fillColor=#fff2cc;strokeColor=#d6b656;" vertex="1" parent="1">
          <mxGeometry x="360" y="520" width="120" height="40" as="geometry" />
        </mxCell>
        <mxCell id="dRwRVW6C_3hpwQ-hqYbz-15" value="" style="edgeStyle=orthogonalEdgeStyle;rounded=0;orthogonalLoop=1;jettySize=auto;html=1;" edge="1" parent="1" source="dRwRVW6C_3hpwQ-hqYbz-6" target="dRwRVW6C_3hpwQ-hqYbz-7">
          <mxGeometry relative="1" as="geometry" />
        </mxCell>
        <mxCell id="dRwRVW6C_3hpwQ-hqYbz-6" value="&lt;div&gt;Data Link Layer&lt;/div&gt;" style="rounded=0;whiteSpace=wrap;html=1;fillColor=#f8cecc;strokeColor=#b85450;" vertex="1" parent="1">
          <mxGeometry x="360" y="600" width="120" height="40" as="geometry" />
        </mxCell>
        <mxCell id="dRwRVW6C_3hpwQ-hqYbz-7" value="&lt;div&gt;Physical Layer&lt;/div&gt;" style="rounded=0;whiteSpace=wrap;html=1;fillColor=#e1d5e7;strokeColor=#9673a6;" vertex="1" parent="1">
          <mxGeometry x="360" y="680" width="120" height="40" as="geometry" />
        </mxCell>
        <mxCell id="dRwRVW6C_3hpwQ-hqYbz-18" value="" style="edgeStyle=orthogonalEdgeStyle;rounded=0;orthogonalLoop=1;jettySize=auto;html=1;" edge="1" parent="1" source="dRwRVW6C_3hpwQ-hqYbz-16" target="dRwRVW6C_3hpwQ-hqYbz-17">
          <mxGeometry relative="1" as="geometry" />
        </mxCell>
        <mxCell id="dRwRVW6C_3hpwQ-hqYbz-16" value="" style="strokeWidth=2;html=1;shape=mxgraph.flowchart.annotation_2;align=left;labelPosition=right;pointerEvents=1;direction=west;dashed=1;" vertex="1" parent="1">
          <mxGeometry x="540" y="600" width="50" height="120" as="geometry" />
        </mxCell>
        <mxCell id="dRwRVW6C_3hpwQ-hqYbz-17" value="CAN" style="whiteSpace=wrap;html=1;align=center;strokeWidth=2;pointerEvents=1;dashed=1;fillColor=#647687;fontColor=#ffffff;strokeColor=#314354;" vertex="1" parent="1">
          <mxGeometry x="635" y="630" width="120" height="60" as="geometry" />
        </mxCell>
        <mxCell id="dRwRVW6C_3hpwQ-hqYbz-19" value="" style="edgeStyle=orthogonalEdgeStyle;rounded=0;orthogonalLoop=1;jettySize=auto;html=1;" edge="1" parent="1" source="dRwRVW6C_3hpwQ-hqYbz-20" target="dRwRVW6C_3hpwQ-hqYbz-21">
          <mxGeometry relative="1" as="geometry" />
        </mxCell>
        <mxCell id="dRwRVW6C_3hpwQ-hqYbz-20" value="" style="strokeWidth=2;html=1;shape=mxgraph.flowchart.annotation_2;align=left;labelPosition=right;pointerEvents=1;direction=west;dashed=1;" vertex="1" parent="1">
          <mxGeometry x="540" y="180" width="50" height="80" as="geometry" />
        </mxCell>
        <mxCell id="dRwRVW6C_3hpwQ-hqYbz-21" value="CANOpen" style="whiteSpace=wrap;html=1;align=center;strokeWidth=2;pointerEvents=1;dashed=1;fillColor=#fa6800;fontColor=#000000;strokeColor=#C73500;" vertex="1" parent="1">
          <mxGeometry x="635" y="190" width="120" height="60" as="geometry" />
        </mxCell>
        <mxCell id="dRwRVW6C_3hpwQ-hqYbz-22" value="" style="edgeStyle=orthogonalEdgeStyle;rounded=0;orthogonalLoop=1;jettySize=auto;html=1;" edge="1" parent="1" source="dRwRVW6C_3hpwQ-hqYbz-23" target="dRwRVW6C_3hpwQ-hqYbz-24">
          <mxGeometry relative="1" as="geometry" />
        </mxCell>
        <mxCell id="dRwRVW6C_3hpwQ-hqYbz-23" value="" style="strokeWidth=2;html=1;shape=mxgraph.flowchart.annotation_2;align=left;labelPosition=right;pointerEvents=1;direction=west;dashed=1;" vertex="1" parent="1">
          <mxGeometry x="540" y="270" width="50" height="300" as="geometry" />
        </mxCell>
        <mxCell id="dRwRVW6C_3hpwQ-hqYbz-24" value="SocketCAN" style="whiteSpace=wrap;html=1;align=center;strokeWidth=2;pointerEvents=1;dashed=1;fillColor=#e3c800;fontColor=#000000;strokeColor=#B09500;" vertex="1" parent="1">
          <mxGeometry x="635" y="390" width="120" height="60" as="geometry" />
        </mxCell>
      </root>
    </mxGraphModel>
  </diagram>
</mxfile>
